<?xml version="1.0" encoding="UTF-8"?>
<svg id="Layer_1" data-name="Layer 1" xmlns="http://www.w3.org/2000/svg" viewBox="0 0 374.55 221.68">
  <g id="uBmHuT">
    <g>
      <path d="M374.55,7.48v204.97c0,5.09-4.13,9.22-9.22,9.22H6.89C3.09,221.68,0,218.59,0,214.78V6.08C0,2.72,2.72,0,6.08,0h360.98c4.13,0,7.48,3.35,7.48,7.48ZM164.76,10.7H17.04c-2.84,0-5.15,2.31-5.15,5.15v103.87h152.87V10.7ZM354.98,10.7h-178.37v21.33h186.05v-13.65c0-4.24-3.44-7.68-7.68-7.68ZM362.66,43.88h-186.05v16.59h186.05v-16.59ZM362.69,72.32h-186.08v17.78h186.08v-17.78ZM362.69,101.95h-186.08v17.78h186.08v-17.78ZM362.66,131.58H11.89v16.59h350.77v-16.59ZM362.69,160.02H11.89v17.78h350.81v-17.78ZM362.66,189.64H11.89v12.17c0,4.41,3.57,7.98,7.98,7.98h336.72c3.35,0,6.07-2.72,6.07-6.07v-14.08Z"/>
      <path d="M36.77,26.1c.45.6,2,6.66,2.4,7.08.23.25,4.06,0,5.3.03,1,.02,4.14-.54,2.96,1.78-.73,1.44-5.78,4.98-5.74,5.91.01.36.97,1.19,1.02,2.37.36,8.59-2.73,1.69-6.54,1.73-2.69.03-7.43,3.96-7.7,3.63-1.21-1.49,1.27-6.6,1.1-7.55-.6-3.23-2.3-2.85-4.09-4.26-.9-.71-2.55-2.85-1.74-3.59.55-.51,7.75.51,8.26-.03.2-.22,1.67-4.29,2.22-5.52.48-1.07.96-3.68,2.55-1.57Z"/>
      <path d="M110.24,26.1c.23.27.09,5.06,2.32,6.57,1.62,1.1,8.42-.18,8.34,2.32-.03,1.06-5.26,2.73-5.87,4.83-.75,2.62,4.71,9.77-2.48,7.08-1.34-.5-2.54-1.9-4.09-1.9-1.64,0-7.42,3.95-7.7,3.62s1.96-5.73,1.08-8.78c-.39-1.37-6.22-5.12-4.63-6.62.41-.39,4.83.37,6.43-.08,1.11-.32,3.66-4.91,4.26-6.32.55-1.3,2.24-.83,2.34-.71Z"/>
      <path d="M120.91,62.84c-.57,2.33-5.37,4.89-5.86,6.61s2.31,6.35,1.12,7.61c-.78.82-5.18-2.63-7.72-2.43-1.89.15-6.17,3.72-7.69,2.42-.28-.24,1.09-1.69,1.21-2.94.15-1.51.26-4.59-.11-5.87s-6.72-3.57-4.66-5.42c.57-.51,5.21.78,7.16-.54,1.24-.85,3.26-5.9,3.51-7.75,2.59.73,2.77,4,4.15,5.92,2.42,3.35,5.16,2.33,8.88,2.38Z"/>
      <path d="M82.99,92.47c-.57,2.33-5.37,4.89-5.86,6.61s2.32,6.31,1.12,7.61c-1,1.1-5.15-3.22-6.65-3.49-1.81-.33-7.66,4.6-8.75,3.49-.31-.32,1.96-5.72,1.08-8.78-.47-1.64-4.2-3.36-4.64-5.44,1.46-.49,7.96-.93,8.25-1.23.26-.27,2.17-5.9,2.42-7.07,2.96.6,2.77,5.32,4.68,6.57,1.35.88,6.35,1.35,8.35,1.72Z"/>
      <path d="M47.44,62.84l-4.64,5.44c-.1,1.9-.31,3.95-.13,5.85.12,1.24,1.5,2.69,1.21,2.94-2.06,1.76-7.26-3.43-7.69-3.43-1.04.02-6.7,4.52-7.72,3.43-1.22-1.31,1.32-6.95,1.14-7.59-.38-1.4-4.81-4.4-5.88-6.04.95-1.25,3.47-.36,5.18-.74,4.36-.97,4.54-5.35,7.26-8.14,1.43,1.35,1.4,4.4,2.34,5.96,1.95,3.25,5.63,2.29,8.92,2.34Z"/>
      <path d="M82.99,62.84c-.59,2.35-5.32,4.84-5.85,6.6-.74,2.49,2.02,6.68,1.1,7.62-.67.69-5.23-2.42-7.7-2.42-2.57,0-6.91,3.12-7.7,2.42-.29-.25,1.08-1.7,1.21-2.94s.17-6.27-.08-6.49c-.27-.24-7.03-2.63-4.69-4.79.31-.28,6.58.32,8.2-1.28.33-.33,2.26-5.81,2.46-7.02,2.59.73,2.77,4,4.15,5.92,2.42,3.35,5.16,2.33,8.88,2.38Z"/>
      <path d="M147.03,91.24c.29.3,6.79.74,8.25,1.23-.43,2.08-4.16,3.8-4.64,5.44-.88,3.06,1.39,8.46,1.08,8.78-1.09,1.11-6.94-3.82-8.75-3.49-1.5.27-5.65,4.58-6.65,3.49-1.12-1.23,2.35-8.45,1.15-9.44-.17-.14-1.41.02-2.33-.61-1.21-.84-2.96-2.77-3.57-4.17,2-.38,7-.84,8.35-1.72,1.58-1.03,1.95-5.33,4.09-6.57,1.3.91,2.56,6.62,3.01,7.07Z"/>
      <path d="M82.99,35.59c-3.1.19-6.26,3.52-5.97,6.54.17,1.73,2.65,4.72.64,6.5-1.66-1.03-5.41-3.62-7.11-3.62-1.85,0-6.09,3.82-7.7,2.44-.3-.25,2.1-4.04,1.08-7.6-.6-2.07-8.17-5.66-1.7-6.65,1.36-.21,2.76.49,4.23-.51,1.38-.94,2.68-6.57,4.1-6.57s2.69,5.6,4.1,6.56c2.38,1.62,7.28-1.16,8.35,2.91Z"/>
      <path d="M155.28,33.22c1.59,1.5-4.24,5.25-4.63,6.62-.88,3.05,1.37,8.45,1.08,8.78s-6.06-3.62-7.7-3.62c-1.55,0-2.76,1.4-4.09,1.9-7.04,2.63-1.47-3.61-2.51-7.09-.39-1.3-6.26-5.09-4.66-6.6.53-.5,5.22.78,7.16-.54,1.39-.94,2.68-6.56,4.1-6.56s2.71,5.62,4.1,6.56c1.94,1.32,6.63.05,7.16.54Z"/>
      <path d="M36.77,84.17c.26,1.18,2.15,6.8,2.42,7.07.29.3,6.79.74,8.25,1.23-.3,1.9-5.78,5.5-5.75,6.49.01.34.95,1.19,1.02,2.37.07,1.12.15,5.15-.02,5.35-.33.39-5.99-3.76-7.56-3.48-1.02.18-6.35,3.84-6.66,3.48-1.22-1.46,1.32-6.93,1.14-7.59-.46-1.69-5.33-4.31-5.88-6.63,6.04-1.01,8.79-.16,10.68-6.53.49-1.64-.92-2.12,2.35-1.77Z"/>
      <path d="M120.91,92.47c-.57,2.33-5.37,4.89-5.86,6.61-.52,1.82,2.31,6.22,1.12,7.61-.33.39-5.99-3.76-7.56-3.48-1.44.25-6.72,4.51-7.84,3.48-.29-.27,1.09-1.68,1.21-2.94.61-6.4-1.14-6.79-4.76-11.28,1.46-.49,7.96-.93,8.25-1.23.26-.27,2.17-5.9,2.42-7.07,2.96.6,2.77,5.32,4.68,6.57,1.35.88,6.35,1.35,8.35,1.72Z"/>
      <path d="M147.07,61.57c1.64,1.61,7.9.99,8.2,1.28,1.59,1.5-4.24,5.25-4.63,6.62-1.02,3.54,1.37,7.33,1.08,7.6-1.15,1.06-6.52-3.38-7.7-3.38-1.12,0-6.68,4.47-7.7,3.38-.92-.98,1.85-5.11,1.1-7.62-.39-1.3-6.26-5.09-4.66-6.6.31-.29,3.01.24,4.18.03.69-.12,3.92-1.11,4.06-1.27.27-.29.53-6.14,3.02-7.06,1.31.99,2.47,6.44,3.06,7.02Z"/>
    </g>
  </g>
</svg>