<?xml version="1.0" encoding="UTF-8"?>
<svg id="Layer_1" data-name="Layer 1" xmlns="http://www.w3.org/2000/svg" viewBox="0 0 303.8 302.52">
  <g id="Zm2PgX.tif">
    <g>
      <g>
        <path d="M.28,193.01c.28-3.32,1.26-7.41,2.07-10.68,5.05-20.24,20.58-38.21,40.02-45.7.17-.83.12-.76-.38-1.23-.91-.87-2.88-1.8-4.08-2.9-42.08-38.48,1.27-101.26,49.91-79.03,33.31,15.22,36.53,62.85,5.54,82l.36,1.22c3.18,1.43,9.71,3.48,10.28,7.42s-2.19,7.06-6.12,7.18c-25.79-14.16-57.24-9.25-74.97,14.83-4.67,6.33-10.77,19.96-10.77,27.79v24.03h76.77c.67,0,3.06,2.29,3.4,3.12,1.8,4.43-.52,8.2-5.17,8.76H5.9c-2.69-.06-4.06-2.4-5.62-4.17.66-10.57-.89-22.19,0-32.63ZM103.04,96.2c0-19.44-15.74-35.19-35.16-35.19s-35.16,15.76-35.16,35.19,15.74,35.19,35.16,35.19,35.16-15.76,35.16-35.19Z"/>
        <path d="M199.06,47.07c0,26-21.05,47.07-47.03,47.07s-47.03-21.07-47.03-47.07S126.07,0,152.04,0s47.03,21.07,47.03,47.07ZM187.19,47.07c0-19.43-15.74-35.19-35.16-35.19s-35.16,15.76-35.16,35.19,15.74,35.19,35.16,35.19,35.16-15.76,35.16-35.19Z"/>
      </g>
      <path d="M303.8,225.65c-1.56,1.76-2.93,4.11-5.62,4.17h-81.24c-4.64-.56-6.97-4.34-5.17-8.76.34-.83,2.73-3.12,3.4-3.12h76.77v-24.03c0-7.83-6.11-21.45-10.77-27.79-17.75-24.1-49.16-28.97-74.97-14.83-3.94-.12-6.71-3.2-6.12-7.18.58-3.94,7.1-5.99,10.28-7.42l.36-1.22c-31.08-19.16-27.72-66.8,5.54-82,48.8-22.3,92.02,41.04,49.91,79.03-.9.81-5.18,3.14-4.46,4.13,17.92,6.88,31.88,22.28,38.39,40.2l3.7,16.18v32.63ZM271.34,96.2c0-19.44-15.74-35.19-35.16-35.19s-35.16,15.76-35.16,35.19,15.74,35.19,35.16,35.19,35.16-15.76,35.16-35.19Z"/>
      <path d="M176.94,209.04l10.62,5.68c14.65,9.02,25.99,24.26,30.11,41.07,2.46,10.04,3.12,31.03,1.95,41.36-.28,2.5-1.15,4.34-3.53,5.37H87.99c-2.38-1.04-3.24-2.87-3.53-5.37-1.17-10.39-.5-31.25,1.95-41.36,4.96-20.48,20.89-39.02,40.73-46.17l-10.09-8.58c-31.48-36.09,3.39-91.02,49.68-76.43,37.51,11.82,43.97,64.44,10.21,84.43ZM187.2,169.4c0-19.44-15.75-35.2-35.17-35.2s-35.17,15.76-35.17,35.2,15.75,35.2,35.17,35.2,35.17-15.76,35.17-35.2ZM207.77,290.92v-24.03c0-7.22-5.5-19.98-9.59-26-26.35-38.74-86.87-29.3-99.64,15.76-.57,2.01-2.22,7.98-2.22,9.65v24.62h111.45Z"/>
    </g>
  </g>
</svg>