<?xml version="1.0" encoding="UTF-8"?>
<svg id="Layer_1" data-name="Layer 1" xmlns="http://www.w3.org/2000/svg" viewBox="0 0 319.5 309.21">
  <path d="M310.63,6.85s-.02-.06-.02-.09c-.03-.11-.06-.23-.09-.34-.6-2.15-2.01-4.02-3.93-5.18-2.04-1.22-4.52-1.57-6.81-.94-18.4,5.05-110.28,33.06-138.35,95.14C131.99,60.42,86.74,32.59,26.19,12.38c-2.35-.78-4.95-.57-7.15.57-2.2,1.14-3.86,3.16-4.56,5.53-6.53,21.98-36.46,135.65,15.6,214.92,27.93,42.53,74.6,68.01,138.72,75.74.37.04.73.07,1.09.07,2.72,0,5.28-1.23,7.02-3.27.68.17,1.37.26,2.07.26,1.32,0,2.66-.3,3.92-.92,17.17-8.5,60.69-33.43,93.92-81.2,18.64-26.79,31.34-56.87,37.76-89.4,7.7-39.07,6.38-82.07-3.94-127.82ZM298.64,12.02c-10.69,40.89-33.27,79.03-54.87,108.62-1.29-21.27-2.25-51.32.93-61.3.92-2.88-.67-5.97-3.56-6.89-2.89-.92-5.97.67-6.89,3.56-4.96,15.55-1.73,63.04-.56,77.94-14.5,18.5-27.57,32.46-34.95,39.98-1.61-8.79-3.95-17.71-7.18-26.66-7.2-23.81-16.87-39.73-20.87-45.69,23.55-55.14,103.6-82.41,127.96-89.57ZM179.01,145.18c.77,1.89,1.49,3.78,2.18,5.66,1.36,4.55,2.63,9.4,3.74,14.55,8.7,40.33,4.56,82.21-12.32,124.55-5.53-9.42-14.99-25.64-26.54-45.74.14-.34.25-.7.32-1.08.47-2.64,11.62-64.84,11.84-89.63.03-3.03-2.41-5.5-5.43-5.53-3.02-.04-5.5,2.4-5.53,5.43-.16,17.57-6.34,56.49-9.64,76.07C100.41,164.29,48.41,70.38,31.4,25.77c76.73,27.24,126.37,67.38,147.62,119.41ZM39.24,227.38C-4.52,160.74,13.13,67.29,22.1,32.12c10.48,26.67,32.68,70.88,66.14,131.77-17.96-10.84-46.8-28.71-59.03-38.95-2.32-1.94-5.78-1.64-7.72.68-1.94,2.32-1.64,5.78.68,7.72,19.01,15.92,73.57,47.8,75.88,49.15.21.12.43.23.65.32,1.97,3.54,3.96,7.1,5.99,10.74,25.99,46.45,50.21,87.92,59.63,103.94-57.78-8.11-99.85-31.68-125.09-70.11ZM267.81,217.81c-28.72,41.29-65.47,64.72-84.39,74.85,8.57-20.19,21.87-60.09,17.24-105.18,2.9-2.77,13.42-13.01,27.08-28.89.25.04.5.07.76.07.36,0,.73-.04,1.09-.11,1.9-.39,46.77-9.52,63.6-16.02,2.82-1.09,4.23-4.27,3.13-7.09-1.09-2.82-4.27-4.23-7.09-3.13-10.99,4.25-35.94,9.95-50.56,13.12.72-.89,1.44-1.8,2.17-2.71,2.37-.62,4.07-2.76,4.1-5.24.57-.74,1.14-1.48,1.72-2.24,19.28-25.3,43.5-62.36,57.57-103.8,11.79,72-.41,134.62-36.43,186.39Z"/>
</svg>