<?xml version="1.0" encoding="UTF-8"?>
<svg id="Layer_1" data-name="Layer 1" xmlns="http://www.w3.org/2000/svg" viewBox="0 0 285.34 320.62">
  <defs>
    <style>
      .cls-1 {
        fill: #1f1d1d;
      }
    </style>
  </defs>
  <path class="cls-1" d="M285.05,125.44c-.39-.39-.76-.87-1.17-1.37-.87-1.1-1.85-2.34-3.22-2.96-4.07-1.84-28.96-1.52-33.75-1.08-4.94.46-8.36,2.13-9.39,4.58-.81,1.92-.2,4.14,1.8,6.6l.11.14.15.09c1.37.82,14.37,1.14,25.32,1.14,7.48,0,14.02-.15,15.22-.39,2.21-.44,3.19-1.77,4.13-3.05.26-.36.53-.72.84-1.08l.24-.28v-2.05l-.29-.29Z"/>
  <path class="cls-1" d="M142.48,44.85c.07,0,.13,0,.2,0,1.78,0,3.41-.67,4.38-1.81,2.99-3.51,2.22-33.29.98-38.32-.56-2.29-1.51-3.53-3.48-4.59l-.22-.12h-4.5l-.3.35c-1.51,1.76-2.57,3.49-2.82,6.18-.39,4.12-.7,33.49,1.41,36.27.95,1.25,2.54,2,4.35,2.05Z"/>
  <path class="cls-1" d="M259.11,220.35l-31-26.07-.13-.09c-1.55-.93-3.33-1.15-5.02-.6-2.55.83-4.48,5.33-3.85,7.76.75,2.91,7.44,8.36,17.57,16.33,6,4.72,12.2,9.61,14.03,12.06l.18.24.28.1c1.71.62,3.31.92,4.71.92,2.05,0,3.68-.65,4.66-1.93,1.56-2.04,1.06-5.18-1.35-8.62l-.08-.11Z"/>
  <path class="cls-1" d="M55.15,193.59c-2.98.44-9.42,6.18-18.91,14.89-3.91,3.59-7.6,6.98-10.29,9.13-1.9,1.52-3.31,3.54-4.07,5.84l-.18.54.06.27c.53,2.39,1.88,4.13,3.8,4.89.71.28,1.48.42,2.27.42,1.58,0,3.26-.56,4.84-1.64l.21-.19c3.29-3.98,8.46-7.78,13.46-11.45,5.14-3.78,10-7.35,13.16-11.21,2.23-2.72,2.76-6.42,1.3-8.99-1.11-1.96-3.17-2.87-5.64-2.5Z"/>
  <path class="cls-1" d="M208.21,72.41c.95.63,2.09.89,3.28.89,1.73,0,3.54-.56,4.98-1.36,2.93-1.63,22.77-18.37,24.97-21.08,2.14-2.62,2.71-6.2,1.37-8.7-.62-1.15-2.18-3.03-5.76-2.7-2.22.21-14.04,10.64-16.38,12.73-6.48,5.77-14.25,13.07-14.46,15.13-.31,2.91.92,4.37,2,5.09Z"/>
  <path class="cls-1" d="M45.62,128.58c.53-2.4-.14-5.8-3.76-7.47-4.09-1.89-32.18-1.64-36.86-.14C1.3,122.17-.01,125.12,0,127.48c.01,2.26,1.18,4.15,2.91,4.68l.14.04h39.32c1.44,0,2.77-1.49,3.24-3.63Z"/>
  <path class="cls-1" d="M41.5,52.01l.21.1c2.54,1.19,6.85,5.14,11.42,9.31,8,7.31,13.52,12.12,16.96,12.12.04,0,.09,0,.13,0,1.87-.07,3.59-1,4.59-2.5.98-1.47,1.17-3.3.53-5.02l-.08-.22-26.54-24.46-.25-.17c-2.93-1.38-5.85-.83-7.62,1.44-2.02,2.6-1.81,6.39.51,9.23l.14.18Z"/>
  <path class="cls-1" d="M216.82,102.93c-12.29-26.66-36.43-44.29-64.57-47.15-28.02-2.86-54.17,7.23-71.77,27.65-18.25,21.17-24.56,49.64-17.32,78.09,3.64,14.3,11.84,24.32,19.77,34.02,7.03,8.6,14.3,17.48,18.16,29.26.69,2.12,1.17,4.89,1.64,7.57.6,3.45,1.16,6.7,2.17,8.96,1.58,3.53,5.17,2.36,7.55,1.58l.37-.12.2-.09c4.94-2.92,1.41-16.06-1.14-23.64-4.32-12.86-11.7-21.69-18.84-30.23-9.96-11.91-19.36-23.16-21.08-44.58-2.27-28.33,8.46-51.29,30.23-64.66,23.53-14.45,56.37-14.51,79.85-.14,22.03,13.48,32.89,37.02,30.59,66.27-1.59,20.18-10.89,30.91-20.74,42.27-6.94,8.01-14.12,16.29-18.46,28.16-1.08,2.96-1.66,6.06-2.21,9.06-.23,1.26-.48,2.56-.75,3.83l-64.88,16.51-.13.04c-1.81.75-3.19,2.54-3.6,4.69-.39,2.02.15,3.97,1.42,5.21,1.29,1.25,3.38,1.75,5.32,1.75.67,0,1.31-.06,1.9-.17l69.77-18.22.16-.54c.88-2.94,1.59-5.79,2.28-8.55,1.76-7.06,3.42-13.73,7.49-20.54,2.86-4.78,6.85-8.93,10.71-12.94,3.31-3.44,6.74-7,9.5-10.99,16.68-24.12,19.08-54.9,6.42-82.36Z"/>
  <path class="cls-1" d="M145.98,200.3c-2.66,17.35-2.22,26.4,1.39,28.49l.2.11,1.33.11h0c3.34.26,6.39-2.24,6.75-5.59l.39-3.7c1.13-10.97,2.21-21.33,5.13-32.33.37-1.41,1.2-3.58,2.16-6.08,3.18-8.34,5.47-14.95,3.78-17.76-.85-1.41-2.18-2.33-3.95-2.75-6.92-1.63-18.79,5.09-21.83,6.92-4.73-4.8-19.36-9.37-24.28-6.4l-.27.16-.84,1.87c-1.06,2.36-1.15,5-.24,7.43l.64,1.71c2.82,7.54,5.74,15.34,7.25,23.33.92,4.86,1.23,9.88,1.53,14.74.31,4.99.63,10.16,1.62,14.99.48,2.32,1.82,3.36,2.86,3.83.68.31,1.45.46,2.26.46,1.31,0,2.72-.4,4.05-1.17l.39-.22.09-.44c3.64-17.69-1.06-35.19-5.59-52.11l-.24-.9c1.18,1.06,2.19,2.64,3.12,4.1.97,1.52,1.81,2.83,2.8,3.57,4.95,3.71,9.8-.98,13-4.09.71-.69,1.61-1.56,2.25-2.03-.7,3.43-1.64,6.86-2.55,10.19-1.21,4.4-2.46,8.95-3.17,13.57Z"/>
  <path class="cls-1" d="M179.59,275.08c-1.44-.86-3.13-1.11-4.76-.71l-67.69,16.97c-3.36.84-5.41,4.26-4.57,7.62.41,1.63,1.43,3,2.87,3.87.99.59,2.1.9,3.22.9.51,0,1.03-.06,1.54-.19l67.69-16.97c3.36-.84,5.41-4.26,4.57-7.63-.41-1.63-1.43-3-2.87-3.86Z"/>
  <path class="cls-1" d="M172.74,251.88c-10.68,1.28-22.48,4.88-33.89,8.36-10.08,3.07-20.5,6.25-30.12,7.83-1.34.22-2.56.74-3.62,1.54l-.13.1c-1.07.81-1.76,2.04-1.9,3.38-.19,1.92.71,3.76,2.34,4.79l1.3.83c1.02.65,2.2.98,3.39.98.5,0,1-.06,1.5-.18l65.86-16.19.27-.11c5.82-3.48,5.5-6.64,5.09-7.84-.95-2.78-4.82-4.11-10.1-3.48Z"/>
  <path class="cls-1" d="M162.46,300.78c-2.12-.18-4.22,1.16-6.64,2.71-4.18,2.68-9.9,6.35-19.18,4.41-2.2-.46-4.21-1.65-6.15-2.8-1.52-.9-3.09-1.84-4.74-2.39-2.03-.69-4.23-.17-5.73,1.36-1.5,1.53-1.99,3.73-1.27,5.75,2.62,7.38,15.74,10.79,24.21,10.79,1.1,0,2.13-.06,3.05-.17,4.33-.54,16.86-5.93,19.94-9.43,1.53-1.74,1.91-4.37.97-6.71-.81-2.03-2.48-3.35-4.46-3.52Z"/>
</svg>