<?xml version="1.0" encoding="UTF-8"?>
<svg id="Layer_1" data-name="Layer 1" xmlns="http://www.w3.org/2000/svg" viewBox="0 0 500 500">
  <defs>
    <style>
      .cls-1 {
        fill: #1f1d1d;
      }
    </style>
  </defs>
  <path class="cls-1" d="M405.4,338.9c-2.17-3.61-6.27-4.34-10.43-1.87-12.69,7.53-22.99,11.9-33.37,14.17-1.66.36-3.37.68-5.15.99.41-.99.82-1.97,1.23-2.96,1.79-4.29,3.65-8.72,5.27-13.18.72-1.97.6-4.03-.35-5.78-.96-1.78-2.69-3.08-4.76-3.57-1.91-.45-3.88-.13-5.55.91-1.76,1.1-3,2.86-3.48,4.97-.08.33-.13.67-.18,1.01-.05.32-.09.62-.16.83-4.36,14.23-12.08,24.09-23.61,30.15-10.13,5.32-21.34,9.07-33.34,11.15-10.69,1.85-21.74,2.73-32.42,3.58-3.55.28-7.21.26-10.81.19,4.11-2.79,7.9-6.32,11.48-10.67,2.44-2.96,2.54-6.63.26-9.34-2.33-2.79-6.28-3.33-9.38-1.3-.87.57-1.55,1.27-2.15,1.9-.3.31-.59.62-.91.9-.93.82-1.83,1.68-2.71,2.52-1.94,1.86-3.76,3.61-5.83,4.78-9.98,5.61-21.15,8.1-33.19,7.41-3.48-.2-7.15-.54-10.49-2.24-2.47-1.26-5.83-.53-7.61.02-3.34,1.03-6.67,2.2-9.9,3.33-2.73.96-5.56,1.95-8.35,2.84-2.73.87-5.49.27-8.47-1.82-4.65-3.28-7.91-8.05-10.27-15.01-2.42-7.16-2.95-14.58-3.35-22.84-.48-9.85.16-18.65,1.97-26.89,2.26-10.33,6.73-20.14,10.67-28.79,1.27-2.78,1.13-5.79-.37-8.05-1.32-1.99-3.52-3.09-6.01-3.02-5,.14-6.7,4.39-7.26,5.79-.53,1.33-1.07,2.67-1.62,4.02-2.4-10.97-1.78-20.91,1.89-30.26,3.7-9.43,8.92-18.12,14.41-26.94.06-.02.12-.05.17-.06,8.47.82,16.72.36,24.53-1.35l3.11-.68c.17,1.96.35,3.9.52,5.84.62,6.81,1.2,13.24,1.59,19.79.17,2.93.01,5.86-.16,8.96-.08,1.47-.17,2.95-.21,4.42-.13,4.13,1.36,7.64,4.41,10.45.62.57,1.22,1.14,1.83,1.72l.95.9c5.83,5.49,8.9,12.42,9.12,20.58.26,9.52-2.64,18.88-9.41,30.35-1.68,2.86-1.81,5.89-.37,9.02,1.21,2.64,3.64,4.03,6.66,3.86,4.55-.27,6.16-4.14,6.68-5.41.6-1.44,1.27-2.9,1.91-4.32.47-1.03.94-2.06,1.39-3.09,3.98-9.12,7.28-17.43,7.36-26.92.03-3.65.67-5.99,2.22-8.06.87-1.17,1.66-2.39,2.42-3.57,1.35-2.09,2.62-4.07,4.23-5.59,4.87-4.63,10.41-9.32,16.94-14.33,4.75-3.65,10.43-6.31,16.89-7.91l.2-.05c1.42-.35,2.9-.72,4.01-.55,6.2.95,11.37,1.84,16.46,3.09,15.92,3.89,32.62,8.98,46.83,19.68,1.64,1.23,3.62,1.72,5.57,1.37,1.92-.34,3.64-1.48,4.71-3.14,2.23-3.45,1.27-8.1-2.14-10.36-2.71-1.79-5.12-3.32-7.39-4.65-12.07-7.13-26.21-12.52-44.49-16.95-1.33-.32-2.66-.66-4.01-1.01,4.8-7.76,14.2-16.6,22.62-21.04,10.69-5.63,22.87-8.46,39.51-9.16,6.7-.28,13.14,1.15,19.96,2.68.9.2,1.8.4,2.7.6,7.01,1.53,15.09,3.84,21.89,9.4,1.52,1.24,3.43,1.71,5.37,1.32,2.11-.42,4-1.85,5.05-3.83.99-1.86,2.61-6.63-3.8-10.69-16.03-10.15-33.99-12.6-47.85-13.61-9.88-.71-19.41.97-27.42,2.71-23.29,5.06-41.06,18.01-52.79,38.46-.1.13-.42.34-.55.37-12.41,1.46-23.63,6.41-34.31,15.12-.77.63-1.55,1.26-2.33,1.89-5.36,4.34-10.88,8.8-15.5,14.55-2.62-4.99-5.87-9.06-9.87-12.37-1.23-1.02-1.61-2-1.42-3.75,1.05-10.13.13-20.16-.81-28.76-.26-2.33-.52-4.66-.8-7.05v-.12c5.54,1.38,11.35,1.69,17.25.92,14-1.81,25.79-8.3,35.04-19.29,20.63-24.5,25.99-53.04,15.93-84.83-4.62-14.62-13.2-26.05-25.47-33.98-12.16-7.85-25.32-10.07-39.1-6.59-2.54.64-4.54.49-6.87-.54-17.71-7.77-35.97-8.62-54.29-2.54-16.26,5.4-30.38,16.23-39.76,30.52-9.36,14.26-13.63,31.38-12.03,48.21,2.51,26.32,15.5,46.47,38.62,59.9,3.48,2.02,7.24,3.6,10.87,5.13.92.38,1.85.78,2.78,1.18-.63,1.08-1.27,2.16-1.91,3.23-1.97,3.32-4.01,6.75-5.83,10.26-8.48,16.35-11.24,30.54-8.67,44.66,1.5,8.23,3.2,15.05,6.65,21.57.25.48.37,1.27.27,1.8-.33,1.79-.74,3.61-1.15,5.38-.61,2.68-1.24,5.45-1.61,8.26-1.55,11.88-1.42,24.12.4,37.45,1.61,11.83,5.57,21.18,12.09,28.57,6.12,6.94,12.93,10.43,20.31,10.43,2,0,4.03-.25,6.11-.77,2.72-.67,5.36-1.59,7.91-2.49,2.09-.73,4.25-1.49,6.37-2.07,2.19-.6,4.36-.78,6.11-.5,8.68,1.41,17.93,2.63,27.31.78,2.36,2.19,5.26,2.46,7.63,2.68.4.04.79.07,1.18.12,1.78.21,3.56.44,5.35.68,4.25.57,8.65,1.15,13.05,1.29,5.48.17,11.01-.23,16.35-.62l2.67-.19c13.42-.93,24.43-2.51,34.64-4.95,17.28-4.14,31.53-10.65,43.58-19.9.2-.15.68-.37,1.86-.54,1.9-.28,3.82-.51,5.73-.75,3.23-.4,6.56-.81,9.84-1.42,14.79-2.79,27.85-9.4,39.76-16.13,1.96-1.11,3.34-2.87,3.89-4.96.51-1.94.23-3.94-.78-5.62ZM245.68,154.4c1.36-23.48-6.95-43.9-24.71-60.77,3.02.13,5.91.67,8.74,1.62,10.76,3.65,18.97,11.17,25.12,23,12.44,23.92,8.53,57.32-9.09,77.69-7.93,9.16-16.84,14.19-27.25,15.37-1.03.12-2.07.16-3.13.17,18.81-15.02,29.01-34.19,30.33-57.08ZM169.69,211.86c-16.74-.11-32.42-6.74-44.15-18.67-11.53-11.73-17.77-27.14-17.6-43.4.18-16.72,6.74-32.29,18.46-43.84,11.6-11.44,27.03-17.73,43.49-17.73.16,0,.32,0,.48,0,16.55.12,32.01,6.67,43.54,18.42,11.53,11.76,17.8,27.4,17.66,44.03-.28,33.82-27.82,61.19-61.48,61.18-.13,0-.27,0-.4,0Z"/>
  <path class="cls-1" d="M172.69,136.71c-4.13-.03-8.12,1.62-11.22,4.67-3.13,3.08-4.94,7.27-4.97,11.5-.03,3.96,1.39,7.59,4,10.21,2.66,2.68,6.39,4.16,10.5,4.16h.01c8.81,0,16.65-7.03,16.8-15.05.07-3.93-1.52-7.87-4.37-10.8-2.86-2.94-6.78-4.65-10.75-4.69Z"/>
</svg>