<?xml version="1.0" encoding="UTF-8"?>
<svg id="Layer_1" xmlns="http://www.w3.org/2000/svg" version="1.1" viewBox="0 0 500 500">
  <!-- Generator: Adobe Illustrator 29.3.1, SVG Export Plug-In . SVG Version: 2.1.0 Build 151)  -->
  <g id="_x34_8ru6r.tif">
    <g>
      <path d="M292.71,82.56c2.02.46,3.85.99,5.55,2.22,2.41,1.76,3.74,4.07,4.55,6.9,5.63,19.91,6.44,41.84,17.65,59.72,10.27,16.39,26.02,27.31,44.75,31.96,12.41,3.08,25.53,5.11,37.79,8.5,2.07.57,3.66,1.29,5.28,2.74,2.2,1.97,3.32,4.48,3.85,7.36-.06.79.08,1.68,0,2.45-.54,5.33-4.36,8.87-9.29,10.26-19.79,5.59-41.59,6.44-59.4,17.48-16.93,10.5-27.58,26.48-32.32,45.7-2.87,11.64-4.96,23.51-7.88,35.14-1.16,4.63-2.63,8.22-7.42,10.09-7.03,2.75-13.8-1.27-15.78-8.26-5.65-19.86-6.41-41.65-17.51-59.53-10.45-16.82-26.26-27.57-45.41-32.29-11.64-2.87-23.5-4.98-35.14-7.88-2.66-.66-4.87-1.12-7.03-2.94-5.77-4.86-5.58-13.83.51-18.31,2.51-1.85,5.51-2.25,8.49-2.96,11.18-2.66,22.52-4.78,33.67-7.55,27.76-6.9,47.25-26.83,54.09-54.52,2.69-10.89,4.77-21.96,7.36-32.88,1.06-4.47,1.46-8.3,5.5-11.19,1.39-.99,3.85-2.04,5.55-2.22h2.62ZM291.57,144.71c-.42-.07-.25.04-.34.23-.88,1.95-1.53,4.24-2.41,6.26-9.27,21.35-26.45,38.86-47.57,48.61-2.72,1.26-5.54,2.4-8.4,3.3.02.23.24.26.4.33,1.64.76,3.61,1.31,5.32,2.04,22.58,9.63,40.78,27.74,50.46,50.3.75,1.76,1.37,4.01,2.21,5.64.08.15.09.39.33.4,8.06-23.83,26.46-44.07,49.18-54.77,2.88-1.36,5.99-2.32,8.82-3.61.16-.07.38-.11.4-.33-27.01-9.25-49.2-31.35-58.4-58.4Z"/>
      <path d="M168.07,417.39c-.66.07-1.96.07-2.62,0-5.58-.6-8.91-4.91-10.23-9.98-5.15-19.89-4.91-38.19-22.09-52.34-13.78-11.36-30.42-11.18-46.8-15.85-12.24-3.49-12.13-19.52.43-22.84,19.35-5.12,37.91-4.94,52.01-21.27,12.19-14.11,11.88-30.75,16.67-47.78,3.42-12.14,19.4-12.07,22.78.16,4.28,15.48,4.64,32.25,14.8,45.4,14.37,18.59,33.11,17.99,53.89,23.48,12.6,3.33,12.63,19.49.16,22.9-20.86,5.72-39.1,4.6-53.81,23.23-10.28,13.03-10.83,29.98-15,45.52-1.31,4.89-4.92,8.81-10.19,9.35ZM166.84,294.71c-7.13,14.35-18.77,26-33.12,33.12,12.53,6.29,23.28,16.04,30.39,28.17.95,1.63,1.69,3.38,2.73,4.95,7.11-14.35,18.77-26.02,33.12-33.12-14.31-7.06-26.1-18.78-33.12-33.12Z"/>
    </g>
  </g>
</svg>